# xmcd
#
# Track frame offsets:
#	150
#	18304
#	35538
#	47903
#	63793
#	79857
#	97226
#	112141
#	127049
#	144778
#	158815
#	170247
#	189690
#	208540
#	223183
#	236962
#	250421
#	262131
#	277972
#	295074
#
# Disc length: 4099 seconds
#
# Revision: 0
# Processed by: cddbd v1.4PL0 Copyright (c) Steve Scherf et al.
# Submitted via: audiograbber 1.81.02
#
DISCID=3c100114
DTITLE=Camilo Sesto - 20 exitos
DYEAR=1900
DGENRE=
TTITLE0=Algo de mi
TTITLE1=Ayudame
TTITLE2=Melina
TTITLE3=Vivir asi es morir de amor
TTITLE4=Quieres ser mi amante?
TTITLE5=Perdoname
TTITLE6=Piel de angel
TTITLE7=Que mas te da?
TTITLE8=Amor... amar
TTITLE9=Algo mas
TTITLE10=Fresa salvaje
TTITLE11=Si me dejas ahora
TTITLE12=Cellos
TTITLE13=Jamas
TTITLE14=Amor de mujer
TTITLE15=Con el viento a tu favor
TTITLE16=Mienteme
TTITLE17=Enamorate de mi
TTITLE18=Vivir sin ti
TTITLE19=Devuelveme mi libertad
EXTD=
EXTT0=
EXTT1=
EXTT2=
EXTT3=
EXTT4=
EXTT5=
EXTT6=
EXTT7=
EXTT8=
EXTT9=
EXTT10=
EXTT11=
EXTT12=
EXTT13=
EXTT14=
EXTT15=
EXTT16=
EXTT17=
EXTT18=
EXTT19=
PLAYORDER=
